/* XPM */
static char * icon_menu_mas_xpm[] = {
"32 32 120 2",
"  	c None",
". 	c #0000AD",
"+ 	c #0000A1",
"@ 	c #00008C",
"# 	c #00009E",
"$ 	c #0000AE",
"% 	c #0000B6",
"& 	c #0000A7",
"* 	c #000087",
"= 	c #000067",
"- 	c #01018F",
"; 	c #0100A7",
"> 	c #01009A",
", 	c #00007B",
"' 	c #00004F",
") 	c #00007D",
"! 	c #000095",
"~ 	c #010092",
"{ 	c #01008B",
"] 	c #00006F",
"^ 	c #00003D",
"/ 	c #000072",
"( 	c #000089",
"_ 	c #000083",
": 	c #000068",
"< 	c #000035",
"[ 	c #000081",
"} 	c #00017F",
"| 	c #000066",
"1 	c #000036",
"2 	c #000078",
"3 	c #000080",
"4 	c #000079",
"5 	c #000076",
"6 	c #000069",
"7 	c #000048",
"8 	c #000071",
"9 	c #000065",
"0 	c #00007A",
"a 	c #000176",
"b 	c #000172",
"c 	c #000178",
"d 	c #000084",
"e 	c #00007F",
"f 	c #000073",
"g 	c #00006B",
"h 	c #000091",
"i 	c #000096",
"j 	c #00008D",
"k 	c #00007E",
"l 	c #000075",
"m 	c #00006E",
"n 	c #00016B",
"o 	c #00006D",
"p 	c #000063",
"q 	c #000061",
"r 	c #000062",
"s 	c #00017C",
"t 	c #000186",
"u 	c #00008B",
"v 	c #000182",
"w 	c #00006A",
"x 	c #000056",
"y 	c #000170",
"z 	c #00005D",
"A 	c #000156",
"B 	c #000158",
"C 	c #000059",
"D 	c #00005A",
"E 	c #00005B",
"F 	c #00005F",
"G 	c #000167",
"H 	c #00016A",
"I 	c #000052",
"J 	c #000053",
"K 	c #000057",
"L 	c #000055",
"M 	c #00004E",
"N 	c #000058",
"O 	c #00005C",
"P 	c #00004C",
"Q 	c #00002E",
"R 	c #000018",
"S 	c #00003B",
"T 	c #00002F",
"U 	c #000030",
"V 	c #00002D",
"W 	c #000033",
"X 	c #000049",
"Y 	c #000050",
"Z 	c #000054",
"` 	c #00003A",
" .	c #000032",
"..	c #000029",
"+.	c #000005",
"@.	c #000002",
"#.	c #000010",
"$.	c #000000",
"%.	c #000006",
"&.	c #00001D",
"*.	c #000038",
"=.	c #00014A",
"-.	c #000051",
";.	c #000045",
">.	c #000027",
",.	c #00000B",
"'.	c #000037",
").	c #000017",
"!.	c #000044",
"~.	c #000019",
"{.	c #00001C",
"].	c #00003C",
"^.	c #00004D",
"/.	c #000041",
"(.	c #000021",
"_.	c #00000C",
":.	c #00002B",
"<.	c #000011",
"[.	c #000001",
"}.	c #00000A",
"                                                                ",
"                                                                ",
"                                                                ",
"                                                                ",
"                                                                ",
"                            . . + @                             ",
"                          # $ % & * =                           ",
"                          - ; ; > , '                           ",
"                          ) ! ~ { ] ^                           ",
"                          / ( ( _ : <                           ",
"                          ] [ } , | 1                           ",
"                          2 3 4 5 6 7                           ",
"                          _ ) / 8 8 9                           ",
"            ) 0 a b c 3 d e f g g 8 5 _ h i i ! j k             ",
"          5 0 ) l m n o o : p q r : m s t u @ u v w x           ",
"          : y o r z A A B C D E z F q G H o ] m H I 1           ",
"          J K E K L M ' I J x N C D D D C O z D P Q R           ",
"          S T T U Q V W ^ X Y J Z J 7 `  .T Q ..R +.@.          ",
"            #.$.$.$.$.%.&.*.=.-.Y ;.>.,.$.$.$.$.$.$.            ",
"                          '.M Z Y ^ ).                          ",
"                          !.Z A Y ^ ~.                          ",
"                          ' C A Y ^ {.                          ",
"                          I D A Y ].{.                          ",
"                          ' N L ^.< ).                          ",
"                          /.;.7 ^ (._.                          ",
"                          :.(.{.<.[.$.                          ",
"                            }.$.$.$.                            ",
"                                                                ",
"                                                                ",
"                                                                ",
"                                                                ",
"                                                                "};
