/* XPM */
static char * icon_menu_menos_xpm[] = {
"32 32 82 1",
" 	c None",
".	c #00007D",
"+	c #00007A",
"@	c #000176",
"#	c #000172",
"$	c #000178",
"%	c #000080",
"&	c #000084",
"*	c #00007F",
"=	c #000073",
"-	c #00006B",
";	c #000071",
">	c #000076",
",	c #000083",
"'	c #000091",
")	c #000096",
"!	c #000095",
"~	c #00008D",
"{	c #00007E",
"]	c #000075",
"^	c #00006E",
"/	c #00016B",
"(	c #00006D",
"_	c #000068",
":	c #000063",
"<	c #000061",
"[	c #000062",
"}	c #00017C",
"|	c #000186",
"1	c #00008B",
"2	c #00008C",
"3	c #000182",
"4	c #00006A",
"5	c #000056",
"6	c #000170",
"7	c #00005D",
"8	c #000156",
"9	c #000158",
"0	c #000059",
"a	c #00005A",
"b	c #00005B",
"c	c #00005F",
"d	c #000167",
"e	c #00016A",
"f	c #00006F",
"g	c #000052",
"h	c #000036",
"i	c #000053",
"j	c #000057",
"k	c #000055",
"l	c #00004E",
"m	c #00004F",
"n	c #000058",
"o	c #00005C",
"p	c #00004C",
"q	c #00002E",
"r	c #000018",
"s	c #00003B",
"t	c #00002F",
"u	c #000030",
"v	c #00002D",
"w	c #000033",
"x	c #00003D",
"y	c #000049",
"z	c #000050",
"A	c #000054",
"B	c #000048",
"C	c #00003A",
"D	c #000032",
"E	c #000029",
"F	c #000005",
"G	c #000002",
"H	c #000010",
"I	c #000000",
"J	c #000006",
"K	c #00001D",
"L	c #000038",
"M	c #00014A",
"N	c #000051",
"O	c #000045",
"P	c #000027",
"Q	c #00000B",
"                                ",
"                                ",
"                                ",
"                                ",
"                                ",
"                                ",
"                                ",
"                                ",
"                                ",
"                                ",
"                                ",
"                                ",
"                                ",
"      .+@#$%&*=--;>,'))!~{      ",
"     >+.]^/((_:<[_^}|121345     ",
"     _6([78890ab7c<de(f^egh     ",
"     ijbjklmgi5n0aaa0o7apqr     ",
"     sttuqvwxyziAiBCDtqErFG     ",
"      HIIIIJKLMNzOPQIIIIII      ",
"                                ",
"                                ",
"                                ",
"                                ",
"                                ",
"                                ",
"                                ",
"                                ",
"                                ",
"                                ",
"                                ",
"                                ",
"                                "};
